<svg width="97" height="88" viewBox="0 0 97 88" fill="none" xmlns="http://www.w3.org/2000/svg">
<path d="M0.333333 41.1838C0.333333 47.0748 5.10896 51.8504 11 51.8504C16.891 51.8504 21.6667 47.0748 21.6667 41.1838C21.6667 35.2927 16.891 30.5171 11 30.5171C5.10896 30.5171 0.333333 35.2927 0.333333 41.1838ZM75.3333 41.1838C75.3333 47.0748 80.109 51.8504 86 51.8504C91.891 51.8504 96.6667 47.0748 96.6667 41.1838C96.6667 35.2927 91.891 30.5171 86 30.5171C80.109 30.5171 75.3333 35.2927 75.3333 41.1838ZM11 43.1838H86V39.1838H11V43.1838Z" fill="black"/>
<path d="M81.6996 87.4281V68.5719H68.3663V87.4281H81.6996ZM22 0.690601C21.0981 0.690601 20.367 1.72456 20.367 3L20.367 23.7846C20.367 25.0601 21.0981 26.094 22 26.094C22.9018 26.094 23.6329 25.0601 23.6329 23.7846L23.6329 5.3094H36.6969C37.5988 5.3094 38.3299 4.27545 38.3299 3C38.3299 1.72456 37.5988 0.690601 36.6969 0.690601H22ZM76.1877 76.367L23.1547 1.36701L20.8453 4.63299L73.8783 79.633L76.1877 76.367Z" fill="black"/>
<path d="M15.3333 87.4281H28.6667V68.5719H15.3333V87.4281ZM76.666 3C76.666 1.72456 75.9349 0.690602 75.033 0.690602H60.3361C59.4342 0.690602 58.7031 1.72456 58.7031 3C58.7031 4.27545 59.4342 5.3094 60.3361 5.3094H73.4V23.7846C73.4 25.0601 74.1311 26.094 75.033 26.094C75.9349 26.094 76.666 25.0601 76.666 23.7846V3ZM23.1547 79.633L76.1877 4.633L73.8783 1.36701L20.8453 76.367L23.1547 79.633Z" fill="black"/>
</svg>
